<mxfile host="app.diagrams.net" modified="2023-11-02T10:26:56.592Z" agent="Mozilla/5.0 (X11; Linux x86_64) AppleWebKit/537.36 (KHTML, like Gecko) Chrome/115.0.0.0 Safari/537.36" etag="Gp4kxCvVE-ojvPJhrNL4" version="22.0.8" type="google">
  <diagram name="Page-1" id="xyAhuHbzzzjV97xBYuFR">
    <mxGraphModel grid="1" page="1" gridSize="10" guides="1" tooltips="1" connect="1" arrows="1" fold="1" pageScale="1" pageWidth="850" pageHeight="1100" math="0" shadow="0">
      <root>
        <mxCell id="0" />
        <mxCell id="1" parent="0" />
        <mxCell id="Gd73bILhMrgCVOO1HXeQ-1" value="" style="ellipse;whiteSpace=wrap;html=1;" vertex="1" parent="1">
          <mxGeometry x="1165" y="150" width="90" height="90" as="geometry" />
        </mxCell>
        <mxCell id="3yZI5LPgk1Yc9uQEJVhP-1" value="Start" style="ellipse;whiteSpace=wrap;html=1;fillColor=#f8cecc;strokeColor=#b85450;" vertex="1" parent="1">
          <mxGeometry x="80" y="160" width="80" height="80" as="geometry" />
        </mxCell>
        <mxCell id="3yZI5LPgk1Yc9uQEJVhP-5" value="" style="shape=flexArrow;endArrow=classic;html=1;rounded=0;entryX=0;entryY=0.5;entryDx=0;entryDy=0;" edge="1" parent="1" target="3yZI5LPgk1Yc9uQEJVhP-1">
          <mxGeometry width="50" height="50" relative="1" as="geometry">
            <mxPoint x="10" y="200" as="sourcePoint" />
            <mxPoint x="70" y="200" as="targetPoint" />
          </mxGeometry>
        </mxCell>
        <mxCell id="3yZI5LPgk1Yc9uQEJVhP-6" value="" style="endArrow=classic;html=1;rounded=0;exitX=1;exitY=0;exitDx=0;exitDy=0;" edge="1" parent="1" source="3yZI5LPgk1Yc9uQEJVhP-1">
          <mxGeometry width="50" height="50" relative="1" as="geometry">
            <mxPoint x="170" y="160" as="sourcePoint" />
            <mxPoint x="270" y="80" as="targetPoint" />
            <Array as="points">
              <mxPoint x="200" y="80" />
            </Array>
          </mxGeometry>
        </mxCell>
        <mxCell id="3yZI5LPgk1Yc9uQEJVhP-26" value="&amp;nbsp;Ɛ" style="edgeLabel;html=1;align=center;verticalAlign=middle;resizable=0;points=[];" vertex="1" connectable="0" parent="3yZI5LPgk1Yc9uQEJVhP-6">
          <mxGeometry x="-0.0591" relative="1" as="geometry">
            <mxPoint as="offset" />
          </mxGeometry>
        </mxCell>
        <mxCell id="3yZI5LPgk1Yc9uQEJVhP-8" value="q&lt;sub&gt;0&lt;/sub&gt;" style="ellipse;whiteSpace=wrap;html=1;aspect=fixed;fillColor=#d5e8d4;strokeColor=#82b366;" vertex="1" parent="1">
          <mxGeometry x="270" y="40" width="80" height="80" as="geometry" />
        </mxCell>
        <mxCell id="3yZI5LPgk1Yc9uQEJVhP-9" value="" style="endArrow=classic;html=1;rounded=0;exitX=1;exitY=0.5;exitDx=0;exitDy=0;entryX=0;entryY=0.5;entryDx=0;entryDy=0;" edge="1" parent="1" source="3yZI5LPgk1Yc9uQEJVhP-8" target="3yZI5LPgk1Yc9uQEJVhP-10">
          <mxGeometry width="50" height="50" relative="1" as="geometry">
            <mxPoint x="410" y="100" as="sourcePoint" />
            <mxPoint x="460" y="50" as="targetPoint" />
          </mxGeometry>
        </mxCell>
        <mxCell id="3yZI5LPgk1Yc9uQEJVhP-11" value="&amp;nbsp;words&amp;nbsp; , underline&amp;nbsp;" style="edgeLabel;html=1;align=center;verticalAlign=middle;resizable=0;points=[];" vertex="1" connectable="0" parent="3yZI5LPgk1Yc9uQEJVhP-9">
          <mxGeometry x="0.0174" y="2" relative="1" as="geometry">
            <mxPoint as="offset" />
          </mxGeometry>
        </mxCell>
        <mxCell id="3yZI5LPgk1Yc9uQEJVhP-10" value="q&lt;sub&gt;1&lt;/sub&gt;" style="ellipse;whiteSpace=wrap;html=1;fillColor=#d5e8d4;strokeColor=#82b366;" vertex="1" parent="1">
          <mxGeometry x="580" y="40" width="80" height="80" as="geometry" />
        </mxCell>
        <mxCell id="3yZI5LPgk1Yc9uQEJVhP-12" value="" style="curved=1;endArrow=classic;html=1;rounded=0;exitX=0;exitY=0;exitDx=0;exitDy=0;" edge="1" parent="1" source="3yZI5LPgk1Yc9uQEJVhP-10" target="3yZI5LPgk1Yc9uQEJVhP-10">
          <mxGeometry width="50" height="50" relative="1" as="geometry">
            <mxPoint x="530" y="40" as="sourcePoint" />
            <mxPoint x="580" y="-10" as="targetPoint" />
            <Array as="points">
              <mxPoint x="580" y="40" />
              <mxPoint x="530" y="-10" />
              <mxPoint x="720" y="-20" />
            </Array>
          </mxGeometry>
        </mxCell>
        <mxCell id="3yZI5LPgk1Yc9uQEJVhP-13" value="&amp;nbsp;words , undeline , numbers&amp;nbsp;&lt;br&gt;" style="edgeLabel;html=1;align=center;verticalAlign=middle;resizable=0;points=[];" vertex="1" connectable="0" parent="3yZI5LPgk1Yc9uQEJVhP-12">
          <mxGeometry x="-0.1336" y="-4" relative="1" as="geometry">
            <mxPoint as="offset" />
          </mxGeometry>
        </mxCell>
        <mxCell id="3yZI5LPgk1Yc9uQEJVhP-14" value="Letters&lt;br&gt;" style="ellipse;whiteSpace=wrap;html=1;fillColor=#d5e8d4;strokeColor=#82b366;" vertex="1" parent="1">
          <mxGeometry x="830" y="40" width="80" height="80" as="geometry" />
        </mxCell>
        <mxCell id="3yZI5LPgk1Yc9uQEJVhP-15" value="" style="endArrow=classic;html=1;rounded=0;exitX=1;exitY=0.5;exitDx=0;exitDy=0;entryX=0;entryY=0.5;entryDx=0;entryDy=0;" edge="1" parent="1" source="3yZI5LPgk1Yc9uQEJVhP-10" target="3yZI5LPgk1Yc9uQEJVhP-14">
          <mxGeometry width="50" height="50" relative="1" as="geometry">
            <mxPoint x="710" y="110" as="sourcePoint" />
            <mxPoint x="760" y="60" as="targetPoint" />
          </mxGeometry>
        </mxCell>
        <mxCell id="3yZI5LPgk1Yc9uQEJVhP-16" value="&lt;br&gt;&lt;br&gt;&lt;span id=&quot;docs-internal-guid-4e82b04d-7fff-444d-67e6-e2b898387b5b&quot;&gt;&lt;/span&gt;&lt;span id=&quot;docs-internal-guid-4e82b04d-7fff-444d-67e6-e2b898387b5b&quot;&gt;&lt;/span&gt;" style="edgeLabel;html=1;align=center;verticalAlign=middle;resizable=0;points=[];" vertex="1" connectable="0" parent="3yZI5LPgk1Yc9uQEJVhP-15">
          <mxGeometry x="0.1882" y="2" relative="1" as="geometry">
            <mxPoint as="offset" />
          </mxGeometry>
        </mxCell>
        <mxCell id="3yZI5LPgk1Yc9uQEJVhP-17" value="Special-characters" style="edgeLabel;html=1;align=center;verticalAlign=middle;resizable=0;points=[];" vertex="1" connectable="0" parent="3yZI5LPgk1Yc9uQEJVhP-15">
          <mxGeometry x="0.1529" relative="1" as="geometry">
            <mxPoint as="offset" />
          </mxGeometry>
        </mxCell>
        <mxCell id="3yZI5LPgk1Yc9uQEJVhP-18" value="&lt;span id=&quot;docs-internal-guid-4e82b04d-7fff-444d-67e6-e2b898387b5b&quot;&gt;&lt;/span&gt;" style="text;html=1;align=center;verticalAlign=middle;resizable=0;points=[];autosize=1;strokeColor=none;fillColor=none;" vertex="1" parent="1">
          <mxGeometry x="740" y="58" width="20" height="10" as="geometry" />
        </mxCell>
        <mxCell id="3yZI5LPgk1Yc9uQEJVhP-21" value="Finish" style="ellipse;whiteSpace=wrap;html=1;fillColor=#f8cecc;strokeColor=#b85450;" vertex="1" parent="1">
          <mxGeometry x="1170" y="155" width="80" height="80" as="geometry" />
        </mxCell>
        <mxCell id="3yZI5LPgk1Yc9uQEJVhP-23" value="" style="endArrow=classic;html=1;rounded=0;exitX=1;exitY=0.5;exitDx=0;exitDy=0;entryX=0.5;entryY=0;entryDx=0;entryDy=0;" edge="1" parent="1" source="3yZI5LPgk1Yc9uQEJVhP-14" target="3yZI5LPgk1Yc9uQEJVhP-21">
          <mxGeometry width="50" height="50" relative="1" as="geometry">
            <mxPoint x="960" y="130" as="sourcePoint" />
            <mxPoint x="1070" y="80" as="targetPoint" />
            <Array as="points">
              <mxPoint x="1010" y="80" />
            </Array>
          </mxGeometry>
        </mxCell>
        <mxCell id="3yZI5LPgk1Yc9uQEJVhP-25" value="&amp;nbsp;Ɛ" style="edgeLabel;html=1;align=center;verticalAlign=middle;resizable=0;points=[];" vertex="1" connectable="0" parent="3yZI5LPgk1Yc9uQEJVhP-23">
          <mxGeometry x="-0.19" relative="1" as="geometry">
            <mxPoint x="1" as="offset" />
          </mxGeometry>
        </mxCell>
        <mxCell id="3yZI5LPgk1Yc9uQEJVhP-28" value="" style="endArrow=classic;html=1;rounded=0;exitX=1;exitY=0.5;exitDx=0;exitDy=0;entryX=0;entryY=0.5;entryDx=0;entryDy=0;" edge="1" parent="1" source="3yZI5LPgk1Yc9uQEJVhP-1" target="3yZI5LPgk1Yc9uQEJVhP-29">
          <mxGeometry width="50" height="50" relative="1" as="geometry">
            <mxPoint x="210" y="240" as="sourcePoint" />
            <mxPoint x="250" y="200" as="targetPoint" />
          </mxGeometry>
        </mxCell>
        <mxCell id="3yZI5LPgk1Yc9uQEJVhP-73" value="&amp;nbsp;Ɛ" style="edgeLabel;html=1;align=center;verticalAlign=middle;resizable=0;points=[];" vertex="1" connectable="0" parent="3yZI5LPgk1Yc9uQEJVhP-28">
          <mxGeometry x="-0.0182" relative="1" as="geometry">
            <mxPoint as="offset" />
          </mxGeometry>
        </mxCell>
        <mxCell id="3yZI5LPgk1Yc9uQEJVhP-32" style="edgeStyle=orthogonalEdgeStyle;rounded=0;orthogonalLoop=1;jettySize=auto;html=1;entryX=0;entryY=0.5;entryDx=0;entryDy=0;" edge="1" parent="1" source="3yZI5LPgk1Yc9uQEJVhP-29" target="3yZI5LPgk1Yc9uQEJVhP-30">
          <mxGeometry relative="1" as="geometry" />
        </mxCell>
        <mxCell id="3yZI5LPgk1Yc9uQEJVhP-34" value="Numbers" style="edgeLabel;html=1;align=center;verticalAlign=middle;resizable=0;points=[];" vertex="1" connectable="0" parent="3yZI5LPgk1Yc9uQEJVhP-32">
          <mxGeometry x="0.0087" y="-2" relative="1" as="geometry">
            <mxPoint as="offset" />
          </mxGeometry>
        </mxCell>
        <mxCell id="3yZI5LPgk1Yc9uQEJVhP-29" value="q&lt;span style=&quot;font-size: 10px;&quot;&gt;&lt;sub&gt;2&lt;/sub&gt;&lt;/span&gt;" style="ellipse;whiteSpace=wrap;html=1;fillColor=#dae8fc;strokeColor=#6c8ebf;" vertex="1" parent="1">
          <mxGeometry x="270" y="160" width="80" height="80" as="geometry" />
        </mxCell>
        <mxCell id="3yZI5LPgk1Yc9uQEJVhP-30" value="q&lt;span style=&quot;font-size: 10px;&quot;&gt;3&lt;/span&gt;" style="ellipse;whiteSpace=wrap;html=1;fillColor=#dae8fc;strokeColor=#6c8ebf;" vertex="1" parent="1">
          <mxGeometry x="580" y="160" width="80" height="80" as="geometry" />
        </mxCell>
        <mxCell id="3yZI5LPgk1Yc9uQEJVhP-35" value="q&lt;sub&gt;4&lt;/sub&gt;" style="ellipse;whiteSpace=wrap;html=1;fillColor=#dae8fc;strokeColor=#6c8ebf;" vertex="1" parent="1">
          <mxGeometry x="425" y="320" width="80" height="80" as="geometry" />
        </mxCell>
        <mxCell id="3yZI5LPgk1Yc9uQEJVhP-38" value="" style="endArrow=classic;html=1;rounded=0;exitX=0.5;exitY=1;exitDx=0;exitDy=0;entryX=0;entryY=0.5;entryDx=0;entryDy=0;" edge="1" parent="1" source="3yZI5LPgk1Yc9uQEJVhP-29" target="3yZI5LPgk1Yc9uQEJVhP-35">
          <mxGeometry width="50" height="50" relative="1" as="geometry">
            <mxPoint x="290" y="350" as="sourcePoint" />
            <mxPoint x="420" y="320" as="targetPoint" />
            <Array as="points">
              <mxPoint x="360" y="360" />
            </Array>
          </mxGeometry>
        </mxCell>
        <mxCell id="3yZI5LPgk1Yc9uQEJVhP-39" value="&lt;span style=&quot;color: rgb(0, 0, 0); font-family: Helvetica; font-size: 11px; font-style: normal; font-variant-ligatures: normal; font-variant-caps: normal; font-weight: 400; letter-spacing: normal; orphans: 2; text-align: center; text-indent: 0px; text-transform: none; widows: 2; word-spacing: 0px; -webkit-text-stroke-width: 0px; background-color: rgb(255, 255, 255); text-decoration-thickness: initial; text-decoration-style: initial; text-decoration-color: initial; float: none; display: inline !important;&quot;&gt;Numbers&lt;/span&gt;" style="edgeLabel;html=1;align=center;verticalAlign=middle;resizable=0;points=[];fontSize=16;" vertex="1" connectable="0" parent="3yZI5LPgk1Yc9uQEJVhP-38">
          <mxGeometry x="-0.1456" y="4" relative="1" as="geometry">
            <mxPoint x="1" as="offset" />
          </mxGeometry>
        </mxCell>
        <mxCell id="3yZI5LPgk1Yc9uQEJVhP-41" value="" style="curved=1;endArrow=classic;html=1;rounded=0;entryX=0.975;entryY=0.663;entryDx=0;entryDy=0;entryPerimeter=0;exitX=0.05;exitY=0.738;exitDx=0;exitDy=0;exitPerimeter=0;" edge="1" parent="1" source="3yZI5LPgk1Yc9uQEJVhP-30" target="3yZI5LPgk1Yc9uQEJVhP-30">
          <mxGeometry width="50" height="50" relative="1" as="geometry">
            <mxPoint x="580" y="220" as="sourcePoint" />
            <mxPoint x="610" y="270" as="targetPoint" />
            <Array as="points">
              <mxPoint x="560" y="270" />
              <mxPoint x="620" y="290" />
              <mxPoint x="680" y="270" />
            </Array>
          </mxGeometry>
        </mxCell>
        <mxCell id="3yZI5LPgk1Yc9uQEJVhP-42" value="Numbers" style="edgeLabel;html=1;align=center;verticalAlign=middle;resizable=0;points=[];" vertex="1" connectable="0" parent="3yZI5LPgk1Yc9uQEJVhP-41">
          <mxGeometry x="0.0109" y="-3" relative="1" as="geometry">
            <mxPoint as="offset" />
          </mxGeometry>
        </mxCell>
        <mxCell id="3yZI5LPgk1Yc9uQEJVhP-43" value="" style="endArrow=classic;html=1;rounded=0;exitX=1;exitY=0.5;exitDx=0;exitDy=0;" edge="1" parent="1" source="3yZI5LPgk1Yc9uQEJVhP-35">
          <mxGeometry width="50" height="50" relative="1" as="geometry">
            <mxPoint x="550" y="390" as="sourcePoint" />
            <mxPoint x="590" y="360" as="targetPoint" />
          </mxGeometry>
        </mxCell>
        <mxCell id="3yZI5LPgk1Yc9uQEJVhP-45" value="&lt;font style=&quot;font-size: 21px;&quot;&gt;&amp;nbsp;.&amp;nbsp;&lt;/font&gt;" style="edgeLabel;html=1;align=center;verticalAlign=middle;resizable=0;points=[];" vertex="1" connectable="0" parent="3yZI5LPgk1Yc9uQEJVhP-43">
          <mxGeometry x="-0.1294" y="-3" relative="1" as="geometry">
            <mxPoint as="offset" />
          </mxGeometry>
        </mxCell>
        <mxCell id="3yZI5LPgk1Yc9uQEJVhP-49" value="" style="curved=1;endArrow=classic;html=1;rounded=0;entryX=0.938;entryY=0.788;entryDx=0;entryDy=0;entryPerimeter=0;exitX=0;exitY=1;exitDx=0;exitDy=0;" edge="1" parent="1" source="3yZI5LPgk1Yc9uQEJVhP-35" target="3yZI5LPgk1Yc9uQEJVhP-35">
          <mxGeometry width="50" height="50" relative="1" as="geometry">
            <mxPoint x="429" y="396" as="sourcePoint" />
            <mxPoint x="503" y="390" as="targetPoint" />
            <Array as="points">
              <mxPoint x="405" y="447" />
              <mxPoint x="465" y="467" />
              <mxPoint x="525" y="447" />
            </Array>
          </mxGeometry>
        </mxCell>
        <mxCell id="3yZI5LPgk1Yc9uQEJVhP-50" value="Numbers" style="edgeLabel;html=1;align=center;verticalAlign=middle;resizable=0;points=[];" vertex="1" connectable="0" parent="3yZI5LPgk1Yc9uQEJVhP-49">
          <mxGeometry x="0.0109" y="-3" relative="1" as="geometry">
            <mxPoint as="offset" />
          </mxGeometry>
        </mxCell>
        <mxCell id="3yZI5LPgk1Yc9uQEJVhP-51" value="q&lt;sub&gt;5&lt;/sub&gt;" style="ellipse;whiteSpace=wrap;html=1;aspect=fixed;fillColor=#dae8fc;strokeColor=#6c8ebf;" vertex="1" parent="1">
          <mxGeometry x="590" y="320" width="80" height="80" as="geometry" />
        </mxCell>
        <mxCell id="3yZI5LPgk1Yc9uQEJVhP-52" value="q&lt;sub&gt;6&lt;/sub&gt;" style="ellipse;whiteSpace=wrap;html=1;aspect=fixed;fillColor=#dae8fc;strokeColor=#6c8ebf;" vertex="1" parent="1">
          <mxGeometry x="760" y="320" width="80" height="80" as="geometry" />
        </mxCell>
        <mxCell id="3yZI5LPgk1Yc9uQEJVhP-58" value="" style="endArrow=classic;html=1;rounded=0;entryX=0;entryY=0.5;entryDx=0;entryDy=0;exitX=1;exitY=0.5;exitDx=0;exitDy=0;" edge="1" parent="1" source="3yZI5LPgk1Yc9uQEJVhP-51" target="3yZI5LPgk1Yc9uQEJVhP-52">
          <mxGeometry width="50" height="50" relative="1" as="geometry">
            <mxPoint x="700" y="420" as="sourcePoint" />
            <mxPoint x="750" y="370" as="targetPoint" />
          </mxGeometry>
        </mxCell>
        <mxCell id="3yZI5LPgk1Yc9uQEJVhP-59" value="Numbers" style="edgeLabel;html=1;align=center;verticalAlign=middle;resizable=0;points=[];" vertex="1" connectable="0" parent="3yZI5LPgk1Yc9uQEJVhP-58">
          <mxGeometry x="-0.1333" y="-1" relative="1" as="geometry">
            <mxPoint as="offset" />
          </mxGeometry>
        </mxCell>
        <mxCell id="3yZI5LPgk1Yc9uQEJVhP-60" value="" style="curved=1;endArrow=classic;html=1;rounded=0;entryX=0.875;entryY=0.875;entryDx=0;entryDy=0;entryPerimeter=0;exitX=0;exitY=1;exitDx=0;exitDy=0;" edge="1" parent="1" source="3yZI5LPgk1Yc9uQEJVhP-52" target="3yZI5LPgk1Yc9uQEJVhP-52">
          <mxGeometry width="50" height="50" relative="1" as="geometry">
            <mxPoint x="772" y="395" as="sourcePoint" />
            <mxPoint x="835" y="390" as="targetPoint" />
            <Array as="points">
              <mxPoint x="740" y="454" />
              <mxPoint x="800" y="474" />
              <mxPoint x="860" y="454" />
            </Array>
          </mxGeometry>
        </mxCell>
        <mxCell id="3yZI5LPgk1Yc9uQEJVhP-61" value="Numbers" style="edgeLabel;html=1;align=center;verticalAlign=middle;resizable=0;points=[];" vertex="1" connectable="0" parent="3yZI5LPgk1Yc9uQEJVhP-60">
          <mxGeometry x="0.0109" y="-3" relative="1" as="geometry">
            <mxPoint as="offset" />
          </mxGeometry>
        </mxCell>
        <mxCell id="3yZI5LPgk1Yc9uQEJVhP-62" value="" style="endArrow=classic;html=1;rounded=0;entryX=0;entryY=0.5;entryDx=0;entryDy=0;exitX=1;exitY=0.5;exitDx=0;exitDy=0;" edge="1" parent="1" source="3yZI5LPgk1Yc9uQEJVhP-30" target="3yZI5LPgk1Yc9uQEJVhP-65">
          <mxGeometry width="50" height="50" relative="1" as="geometry">
            <mxPoint x="665" y="200" as="sourcePoint" />
            <mxPoint x="835" y="199.5" as="targetPoint" />
          </mxGeometry>
        </mxCell>
        <mxCell id="3yZI5LPgk1Yc9uQEJVhP-63" value="&lt;br&gt;&lt;br&gt;&lt;span id=&quot;docs-internal-guid-4e82b04d-7fff-444d-67e6-e2b898387b5b&quot;&gt;&lt;/span&gt;&lt;span id=&quot;docs-internal-guid-4e82b04d-7fff-444d-67e6-e2b898387b5b&quot;&gt;&lt;/span&gt;" style="edgeLabel;html=1;align=center;verticalAlign=middle;resizable=0;points=[];" vertex="1" connectable="0" parent="3yZI5LPgk1Yc9uQEJVhP-62">
          <mxGeometry x="0.1882" y="2" relative="1" as="geometry">
            <mxPoint as="offset" />
          </mxGeometry>
        </mxCell>
        <mxCell id="3yZI5LPgk1Yc9uQEJVhP-64" value="Special-characters" style="edgeLabel;html=1;align=center;verticalAlign=middle;resizable=0;points=[];" vertex="1" connectable="0" parent="3yZI5LPgk1Yc9uQEJVhP-62">
          <mxGeometry x="0.1529" relative="1" as="geometry">
            <mxPoint as="offset" />
          </mxGeometry>
        </mxCell>
        <mxCell id="3yZI5LPgk1Yc9uQEJVhP-65" value="Number" style="ellipse;whiteSpace=wrap;html=1;aspect=fixed;fillColor=#dae8fc;strokeColor=#6c8ebf;" vertex="1" parent="1">
          <mxGeometry x="830" y="160" width="80" height="80" as="geometry" />
        </mxCell>
        <mxCell id="3yZI5LPgk1Yc9uQEJVhP-69" value="" style="endArrow=classic;html=1;rounded=0;entryX=0.5;entryY=1;entryDx=0;entryDy=0;exitX=1;exitY=0.5;exitDx=0;exitDy=0;" edge="1" parent="1" target="3yZI5LPgk1Yc9uQEJVhP-65">
          <mxGeometry width="50" height="50" relative="1" as="geometry">
            <mxPoint x="840" y="350" as="sourcePoint" />
            <mxPoint x="1010" y="350" as="targetPoint" />
          </mxGeometry>
        </mxCell>
        <mxCell id="3yZI5LPgk1Yc9uQEJVhP-70" value="&lt;br&gt;&lt;br&gt;&lt;span id=&quot;docs-internal-guid-4e82b04d-7fff-444d-67e6-e2b898387b5b&quot;&gt;&lt;/span&gt;&lt;span id=&quot;docs-internal-guid-4e82b04d-7fff-444d-67e6-e2b898387b5b&quot;&gt;&lt;/span&gt;" style="edgeLabel;html=1;align=center;verticalAlign=middle;resizable=0;points=[];" vertex="1" connectable="0" parent="3yZI5LPgk1Yc9uQEJVhP-69">
          <mxGeometry x="0.1882" y="2" relative="1" as="geometry">
            <mxPoint as="offset" />
          </mxGeometry>
        </mxCell>
        <mxCell id="3yZI5LPgk1Yc9uQEJVhP-71" value="Special-characters" style="edgeLabel;html=1;align=center;verticalAlign=middle;resizable=0;points=[];" vertex="1" connectable="0" parent="3yZI5LPgk1Yc9uQEJVhP-69">
          <mxGeometry x="0.1529" relative="1" as="geometry">
            <mxPoint as="offset" />
          </mxGeometry>
        </mxCell>
        <mxCell id="3yZI5LPgk1Yc9uQEJVhP-74" value="" style="endArrow=classic;html=1;rounded=0;exitX=1;exitY=0.5;exitDx=0;exitDy=0;entryX=0;entryY=0.5;entryDx=0;entryDy=0;" edge="1" parent="1" source="3yZI5LPgk1Yc9uQEJVhP-65" target="3yZI5LPgk1Yc9uQEJVhP-21">
          <mxGeometry width="50" height="50" relative="1" as="geometry">
            <mxPoint x="920" y="199.5" as="sourcePoint" />
            <mxPoint x="1030" y="200" as="targetPoint" />
          </mxGeometry>
        </mxCell>
        <mxCell id="3yZI5LPgk1Yc9uQEJVhP-75" value="&amp;nbsp;Ɛ" style="edgeLabel;html=1;align=center;verticalAlign=middle;resizable=0;points=[];" vertex="1" connectable="0" parent="3yZI5LPgk1Yc9uQEJVhP-74">
          <mxGeometry x="-0.0182" relative="1" as="geometry">
            <mxPoint as="offset" />
          </mxGeometry>
        </mxCell>
        <mxCell id="3yZI5LPgk1Yc9uQEJVhP-76" value="" style="endArrow=classic;html=1;rounded=0;exitX=1;exitY=1;exitDx=0;exitDy=0;entryX=0;entryY=0.5;entryDx=0;entryDy=0;" edge="1" parent="1" source="3yZI5LPgk1Yc9uQEJVhP-1" target="3yZI5LPgk1Yc9uQEJVhP-77">
          <mxGeometry width="50" height="50" relative="1" as="geometry">
            <mxPoint x="200" y="340" as="sourcePoint" />
            <mxPoint x="240" y="580" as="targetPoint" />
            <Array as="points">
              <mxPoint x="200" y="600" />
            </Array>
          </mxGeometry>
        </mxCell>
        <mxCell id="3yZI5LPgk1Yc9uQEJVhP-79" value="&amp;nbsp;Ɛ" style="edgeLabel;html=1;align=center;verticalAlign=middle;resizable=0;points=[];" vertex="1" connectable="0" parent="3yZI5LPgk1Yc9uQEJVhP-76">
          <mxGeometry x="0.0527" y="2" relative="1" as="geometry">
            <mxPoint as="offset" />
          </mxGeometry>
        </mxCell>
        <mxCell id="3yZI5LPgk1Yc9uQEJVhP-77" value="q&lt;sub&gt;7&lt;/sub&gt;" style="ellipse;whiteSpace=wrap;html=1;aspect=fixed;fillColor=#e1d5e7;strokeColor=#9673a6;" vertex="1" parent="1">
          <mxGeometry x="270" y="560" width="80" height="80" as="geometry" />
        </mxCell>
        <mxCell id="3yZI5LPgk1Yc9uQEJVhP-80" value="" style="endArrow=classic;html=1;rounded=0;exitX=1;exitY=0.5;exitDx=0;exitDy=0;fontSize=15;" edge="1" parent="1" source="3yZI5LPgk1Yc9uQEJVhP-77">
          <mxGeometry width="50" height="50" relative="1" as="geometry">
            <mxPoint x="360" y="610" as="sourcePoint" />
            <mxPoint x="400" y="600" as="targetPoint" />
          </mxGeometry>
        </mxCell>
        <mxCell id="3yZI5LPgk1Yc9uQEJVhP-82" value="b" style="edgeLabel;html=1;align=center;verticalAlign=middle;resizable=0;points=[];fontSize=15;" vertex="1" connectable="0" parent="3yZI5LPgk1Yc9uQEJVhP-80">
          <mxGeometry x="0.12" relative="1" as="geometry">
            <mxPoint as="offset" />
          </mxGeometry>
        </mxCell>
        <mxCell id="3yZI5LPgk1Yc9uQEJVhP-85" style="edgeStyle=orthogonalEdgeStyle;rounded=0;orthogonalLoop=1;jettySize=auto;html=1;entryX=0;entryY=0.5;entryDx=0;entryDy=0;" edge="1" parent="1" source="3yZI5LPgk1Yc9uQEJVhP-81" target="3yZI5LPgk1Yc9uQEJVhP-83">
          <mxGeometry relative="1" as="geometry" />
        </mxCell>
        <mxCell id="3yZI5LPgk1Yc9uQEJVhP-87" value="r" style="edgeLabel;html=1;align=center;verticalAlign=middle;resizable=0;points=[];fontSize=15;" vertex="1" connectable="0" parent="3yZI5LPgk1Yc9uQEJVhP-85">
          <mxGeometry relative="1" as="geometry">
            <mxPoint y="-2" as="offset" />
          </mxGeometry>
        </mxCell>
        <mxCell id="3yZI5LPgk1Yc9uQEJVhP-81" value="q&lt;sub&gt;8&lt;/sub&gt;" style="ellipse;whiteSpace=wrap;html=1;aspect=fixed;fillColor=#e1d5e7;strokeColor=#9673a6;" vertex="1" parent="1">
          <mxGeometry x="400" y="560" width="80" height="80" as="geometry" />
        </mxCell>
        <mxCell id="3yZI5LPgk1Yc9uQEJVhP-90" style="edgeStyle=orthogonalEdgeStyle;rounded=0;orthogonalLoop=1;jettySize=auto;html=1;entryX=0;entryY=0.5;entryDx=0;entryDy=0;" edge="1" parent="1" source="3yZI5LPgk1Yc9uQEJVhP-83" target="3yZI5LPgk1Yc9uQEJVhP-84">
          <mxGeometry relative="1" as="geometry" />
        </mxCell>
        <mxCell id="3yZI5LPgk1Yc9uQEJVhP-92" value="&lt;font style=&quot;font-size: 15px;&quot;&gt;e&lt;/font&gt;" style="edgeLabel;html=1;align=center;verticalAlign=middle;resizable=0;points=[];" vertex="1" connectable="0" parent="3yZI5LPgk1Yc9uQEJVhP-90">
          <mxGeometry x="0.04" y="-1" relative="1" as="geometry">
            <mxPoint y="-3" as="offset" />
          </mxGeometry>
        </mxCell>
        <mxCell id="3yZI5LPgk1Yc9uQEJVhP-83" value="q&lt;sub&gt;9&lt;/sub&gt;" style="ellipse;whiteSpace=wrap;html=1;aspect=fixed;fillColor=#e1d5e7;strokeColor=#9673a6;" vertex="1" parent="1">
          <mxGeometry x="530" y="560" width="80" height="80" as="geometry" />
        </mxCell>
        <mxCell id="3yZI5LPgk1Yc9uQEJVhP-94" value="" style="edgeStyle=orthogonalEdgeStyle;rounded=0;orthogonalLoop=1;jettySize=auto;html=1;" edge="1" parent="1" source="3yZI5LPgk1Yc9uQEJVhP-84" target="3yZI5LPgk1Yc9uQEJVhP-93">
          <mxGeometry relative="1" as="geometry" />
        </mxCell>
        <mxCell id="3yZI5LPgk1Yc9uQEJVhP-95" value="&lt;font style=&quot;font-size: 15px;&quot;&gt;a&lt;/font&gt;" style="edgeLabel;html=1;align=center;verticalAlign=middle;resizable=0;points=[];" vertex="1" connectable="0" parent="3yZI5LPgk1Yc9uQEJVhP-94">
          <mxGeometry x="-0.04" y="1" relative="1" as="geometry">
            <mxPoint as="offset" />
          </mxGeometry>
        </mxCell>
        <mxCell id="3yZI5LPgk1Yc9uQEJVhP-84" value="q&lt;sub&gt;10&lt;/sub&gt;" style="ellipse;whiteSpace=wrap;html=1;aspect=fixed;fillColor=#e1d5e7;strokeColor=#9673a6;" vertex="1" parent="1">
          <mxGeometry x="660" y="560" width="80" height="80" as="geometry" />
        </mxCell>
        <mxCell id="3yZI5LPgk1Yc9uQEJVhP-97" style="edgeStyle=orthogonalEdgeStyle;rounded=0;orthogonalLoop=1;jettySize=auto;html=1;exitX=1;exitY=0.5;exitDx=0;exitDy=0;entryX=0;entryY=0.5;entryDx=0;entryDy=0;" edge="1" parent="1" source="3yZI5LPgk1Yc9uQEJVhP-93" target="3yZI5LPgk1Yc9uQEJVhP-96">
          <mxGeometry relative="1" as="geometry" />
        </mxCell>
        <mxCell id="3yZI5LPgk1Yc9uQEJVhP-98" value="&lt;font style=&quot;font-size: 15px;&quot;&gt;k&lt;/font&gt;" style="edgeLabel;html=1;align=center;verticalAlign=middle;resizable=0;points=[];" vertex="1" connectable="0" parent="3yZI5LPgk1Yc9uQEJVhP-97">
          <mxGeometry y="-2" relative="1" as="geometry">
            <mxPoint y="-3" as="offset" />
          </mxGeometry>
        </mxCell>
        <mxCell id="3yZI5LPgk1Yc9uQEJVhP-99" value="" style="edgeStyle=orthogonalEdgeStyle;rounded=0;orthogonalLoop=1;jettySize=auto;html=1;" edge="1" parent="1" source="3yZI5LPgk1Yc9uQEJVhP-93" target="3yZI5LPgk1Yc9uQEJVhP-96">
          <mxGeometry relative="1" as="geometry" />
        </mxCell>
        <mxCell id="3yZI5LPgk1Yc9uQEJVhP-93" value="q&lt;sub&gt;11&lt;/sub&gt;" style="ellipse;whiteSpace=wrap;html=1;aspect=fixed;fillColor=#e1d5e7;strokeColor=#9673a6;" vertex="1" parent="1">
          <mxGeometry x="790" y="560" width="80" height="80" as="geometry" />
        </mxCell>
        <mxCell id="3yZI5LPgk1Yc9uQEJVhP-96" value="q&lt;sub&gt;12&lt;/sub&gt;" style="ellipse;whiteSpace=wrap;html=1;aspect=fixed;fillColor=#e1d5e7;strokeColor=#9673a6;" vertex="1" parent="1">
          <mxGeometry x="910" y="560" width="80" height="80" as="geometry" />
        </mxCell>
        <mxCell id="3yZI5LPgk1Yc9uQEJVhP-102" value="KeyWords" style="ellipse;whiteSpace=wrap;html=1;aspect=fixed;fillColor=#e1d5e7;strokeColor=#9673a6;" vertex="1" parent="1">
          <mxGeometry x="1030" y="450" width="80" height="80" as="geometry" />
        </mxCell>
        <mxCell id="3yZI5LPgk1Yc9uQEJVhP-104" value="" style="endArrow=classic;html=1;rounded=0;exitX=1;exitY=0.5;exitDx=0;exitDy=0;entryX=0;entryY=1;entryDx=0;entryDy=0;" edge="1" parent="1" source="3yZI5LPgk1Yc9uQEJVhP-96" target="3yZI5LPgk1Yc9uQEJVhP-102">
          <mxGeometry width="50" height="50" relative="1" as="geometry">
            <mxPoint x="1020" y="600" as="sourcePoint" />
            <mxPoint x="1070" y="550" as="targetPoint" />
          </mxGeometry>
        </mxCell>
        <mxCell id="3yZI5LPgk1Yc9uQEJVhP-105" value="Special-characters" style="edgeLabel;html=1;align=center;verticalAlign=middle;resizable=0;points=[];" vertex="1" connectable="0" parent="3yZI5LPgk1Yc9uQEJVhP-104">
          <mxGeometry x="-0.0091" y="-1" relative="1" as="geometry">
            <mxPoint x="4" as="offset" />
          </mxGeometry>
        </mxCell>
        <mxCell id="3yZI5LPgk1Yc9uQEJVhP-106" value="q&lt;sub&gt;13&lt;/sub&gt;" style="ellipse;whiteSpace=wrap;html=1;aspect=fixed;fillColor=#e1d5e7;strokeColor=#9673a6;" vertex="1" parent="1">
          <mxGeometry x="400" y="670" width="80" height="80" as="geometry" />
        </mxCell>
        <mxCell id="3yZI5LPgk1Yc9uQEJVhP-107" value="" style="endArrow=classic;html=1;rounded=0;exitX=0.5;exitY=1;exitDx=0;exitDy=0;entryX=0;entryY=0.5;entryDx=0;entryDy=0;" edge="1" parent="1" source="3yZI5LPgk1Yc9uQEJVhP-77" target="3yZI5LPgk1Yc9uQEJVhP-106">
          <mxGeometry width="50" height="50" relative="1" as="geometry">
            <mxPoint x="320" y="740" as="sourcePoint" />
            <mxPoint x="370" y="690" as="targetPoint" />
            <Array as="points">
              <mxPoint x="340" y="710" />
            </Array>
          </mxGeometry>
        </mxCell>
        <mxCell id="3yZI5LPgk1Yc9uQEJVhP-108" value="&lt;font style=&quot;font-size: 15px;&quot;&gt;s&lt;/font&gt;" style="edgeLabel;html=1;align=center;verticalAlign=middle;resizable=0;points=[];" vertex="1" connectable="0" parent="3yZI5LPgk1Yc9uQEJVhP-107">
          <mxGeometry x="0.4124" relative="1" as="geometry">
            <mxPoint as="offset" />
          </mxGeometry>
        </mxCell>
        <mxCell id="3yZI5LPgk1Yc9uQEJVhP-136" style="edgeStyle=orthogonalEdgeStyle;rounded=0;orthogonalLoop=1;jettySize=auto;html=1;entryX=0;entryY=0.5;entryDx=0;entryDy=0;exitX=1;exitY=0.5;exitDx=0;exitDy=0;" edge="1" parent="1" source="3yZI5LPgk1Yc9uQEJVhP-106" target="3yZI5LPgk1Yc9uQEJVhP-140">
          <mxGeometry relative="1" as="geometry">
            <mxPoint x="480" y="710" as="sourcePoint" />
          </mxGeometry>
        </mxCell>
        <mxCell id="3yZI5LPgk1Yc9uQEJVhP-137" value="t" style="edgeLabel;html=1;align=center;verticalAlign=middle;resizable=0;points=[];fontSize=15;" vertex="1" connectable="0" parent="3yZI5LPgk1Yc9uQEJVhP-136">
          <mxGeometry relative="1" as="geometry">
            <mxPoint y="-2" as="offset" />
          </mxGeometry>
        </mxCell>
        <mxCell id="3yZI5LPgk1Yc9uQEJVhP-138" style="edgeStyle=orthogonalEdgeStyle;rounded=0;orthogonalLoop=1;jettySize=auto;html=1;entryX=0;entryY=0.5;entryDx=0;entryDy=0;" edge="1" parent="1" source="3yZI5LPgk1Yc9uQEJVhP-140" target="3yZI5LPgk1Yc9uQEJVhP-143">
          <mxGeometry relative="1" as="geometry" />
        </mxCell>
        <mxCell id="3yZI5LPgk1Yc9uQEJVhP-139" value="&lt;font style=&quot;font-size: 15px;&quot;&gt;r&lt;/font&gt;" style="edgeLabel;html=1;align=center;verticalAlign=middle;resizable=0;points=[];" vertex="1" connectable="0" parent="3yZI5LPgk1Yc9uQEJVhP-138">
          <mxGeometry x="0.04" y="-1" relative="1" as="geometry">
            <mxPoint y="-3" as="offset" />
          </mxGeometry>
        </mxCell>
        <mxCell id="3yZI5LPgk1Yc9uQEJVhP-140" value="q&lt;sub&gt;14&lt;/sub&gt;" style="ellipse;whiteSpace=wrap;html=1;aspect=fixed;fillColor=#e1d5e7;strokeColor=#9673a6;" vertex="1" parent="1">
          <mxGeometry x="530" y="670" width="80" height="80" as="geometry" />
        </mxCell>
        <mxCell id="3yZI5LPgk1Yc9uQEJVhP-141" value="" style="edgeStyle=orthogonalEdgeStyle;rounded=0;orthogonalLoop=1;jettySize=auto;html=1;" edge="1" parent="1" source="3yZI5LPgk1Yc9uQEJVhP-143" target="3yZI5LPgk1Yc9uQEJVhP-147">
          <mxGeometry relative="1" as="geometry" />
        </mxCell>
        <mxCell id="3yZI5LPgk1Yc9uQEJVhP-142" value="&lt;font style=&quot;font-size: 15px;&quot;&gt;u&lt;/font&gt;" style="edgeLabel;html=1;align=center;verticalAlign=middle;resizable=0;points=[];" vertex="1" connectable="0" parent="3yZI5LPgk1Yc9uQEJVhP-141">
          <mxGeometry x="-0.04" y="1" relative="1" as="geometry">
            <mxPoint as="offset" />
          </mxGeometry>
        </mxCell>
        <mxCell id="3yZI5LPgk1Yc9uQEJVhP-152" value="" style="edgeStyle=orthogonalEdgeStyle;rounded=0;orthogonalLoop=1;jettySize=auto;html=1;" edge="1" parent="1" source="3yZI5LPgk1Yc9uQEJVhP-143" target="3yZI5LPgk1Yc9uQEJVhP-147">
          <mxGeometry relative="1" as="geometry" />
        </mxCell>
        <mxCell id="3yZI5LPgk1Yc9uQEJVhP-143" value="q&lt;sub&gt;15&lt;/sub&gt;" style="ellipse;whiteSpace=wrap;html=1;aspect=fixed;fillColor=#e1d5e7;strokeColor=#9673a6;" vertex="1" parent="1">
          <mxGeometry x="660" y="670" width="80" height="80" as="geometry" />
        </mxCell>
        <mxCell id="3yZI5LPgk1Yc9uQEJVhP-144" style="edgeStyle=orthogonalEdgeStyle;rounded=0;orthogonalLoop=1;jettySize=auto;html=1;exitX=1;exitY=0.5;exitDx=0;exitDy=0;entryX=0;entryY=0.5;entryDx=0;entryDy=0;" edge="1" parent="1" source="3yZI5LPgk1Yc9uQEJVhP-147" target="3yZI5LPgk1Yc9uQEJVhP-148">
          <mxGeometry relative="1" as="geometry" />
        </mxCell>
        <mxCell id="3yZI5LPgk1Yc9uQEJVhP-145" value="&lt;font style=&quot;font-size: 15px;&quot;&gt;c&lt;/font&gt;" style="edgeLabel;html=1;align=center;verticalAlign=middle;resizable=0;points=[];" vertex="1" connectable="0" parent="3yZI5LPgk1Yc9uQEJVhP-144">
          <mxGeometry y="-2" relative="1" as="geometry">
            <mxPoint y="-3" as="offset" />
          </mxGeometry>
        </mxCell>
        <mxCell id="3yZI5LPgk1Yc9uQEJVhP-147" value="q&lt;sub&gt;16&lt;/sub&gt;" style="ellipse;whiteSpace=wrap;html=1;aspect=fixed;fillColor=#e1d5e7;strokeColor=#9673a6;" vertex="1" parent="1">
          <mxGeometry x="790" y="670" width="80" height="80" as="geometry" />
        </mxCell>
        <mxCell id="3yZI5LPgk1Yc9uQEJVhP-154" value="" style="edgeStyle=orthogonalEdgeStyle;rounded=0;orthogonalLoop=1;jettySize=auto;html=1;" edge="1" parent="1" source="3yZI5LPgk1Yc9uQEJVhP-148" target="3yZI5LPgk1Yc9uQEJVhP-153">
          <mxGeometry relative="1" as="geometry" />
        </mxCell>
        <mxCell id="3yZI5LPgk1Yc9uQEJVhP-155" value="&lt;font style=&quot;font-size: 15px;&quot;&gt;t&lt;/font&gt;" style="edgeLabel;html=1;align=center;verticalAlign=middle;resizable=0;points=[];" vertex="1" connectable="0" parent="3yZI5LPgk1Yc9uQEJVhP-154">
          <mxGeometry x="-0.0667" y="1" relative="1" as="geometry">
            <mxPoint as="offset" />
          </mxGeometry>
        </mxCell>
        <mxCell id="3yZI5LPgk1Yc9uQEJVhP-148" value="q&lt;sub&gt;17&lt;/sub&gt;" style="ellipse;whiteSpace=wrap;html=1;aspect=fixed;fillColor=#e1d5e7;strokeColor=#9673a6;" vertex="1" parent="1">
          <mxGeometry x="910" y="670" width="80" height="80" as="geometry" />
        </mxCell>
        <mxCell id="3yZI5LPgk1Yc9uQEJVhP-149" value="" style="endArrow=classic;html=1;rounded=0;exitX=0.5;exitY=0;exitDx=0;exitDy=0;entryX=0.5;entryY=1;entryDx=0;entryDy=0;" edge="1" parent="1" source="3yZI5LPgk1Yc9uQEJVhP-153" target="3yZI5LPgk1Yc9uQEJVhP-102">
          <mxGeometry width="50" height="50" relative="1" as="geometry">
            <mxPoint x="1068" y="662" as="sourcePoint" />
            <mxPoint x="1115" y="580" as="targetPoint" />
          </mxGeometry>
        </mxCell>
        <mxCell id="3yZI5LPgk1Yc9uQEJVhP-150" value="Special-characters" style="edgeLabel;html=1;align=center;verticalAlign=middle;resizable=0;points=[];" vertex="1" connectable="0" parent="3yZI5LPgk1Yc9uQEJVhP-149">
          <mxGeometry x="-0.0091" y="-1" relative="1" as="geometry">
            <mxPoint x="4" as="offset" />
          </mxGeometry>
        </mxCell>
        <mxCell id="3yZI5LPgk1Yc9uQEJVhP-153" value="q&lt;sub&gt;18&lt;/sub&gt;" style="ellipse;whiteSpace=wrap;html=1;aspect=fixed;fillColor=#e1d5e7;strokeColor=#9673a6;" vertex="1" parent="1">
          <mxGeometry x="1030" y="670" width="80" height="80" as="geometry" />
        </mxCell>
        <mxCell id="3yZI5LPgk1Yc9uQEJVhP-163" value="" style="endArrow=classic;html=1;rounded=0;exitX=1;exitY=0.5;exitDx=0;exitDy=0;" edge="1" parent="1" source="3yZI5LPgk1Yc9uQEJVhP-102">
          <mxGeometry width="50" height="50" relative="1" as="geometry">
            <mxPoint x="1130" y="490" as="sourcePoint" />
            <mxPoint x="1197" y="234" as="targetPoint" />
            <Array as="points">
              <mxPoint x="1160" y="490" />
            </Array>
          </mxGeometry>
        </mxCell>
        <mxCell id="3yZI5LPgk1Yc9uQEJVhP-164" value="&amp;nbsp;Ɛ" style="edgeLabel;html=1;align=center;verticalAlign=middle;resizable=0;points=[];" vertex="1" connectable="0" parent="3yZI5LPgk1Yc9uQEJVhP-163">
          <mxGeometry x="0.2251" y="-1" relative="1" as="geometry">
            <mxPoint as="offset" />
          </mxGeometry>
        </mxCell>
        <mxCell id="3yZI5LPgk1Yc9uQEJVhP-165" value="" style="endArrow=classic;html=1;rounded=0;exitX=0.675;exitY=0.95;exitDx=0;exitDy=0;entryX=0;entryY=0.5;entryDx=0;entryDy=0;exitPerimeter=0;" edge="1" parent="1" source="3yZI5LPgk1Yc9uQEJVhP-1" target="3yZI5LPgk1Yc9uQEJVhP-166">
          <mxGeometry width="50" height="50" relative="1" as="geometry">
            <mxPoint x="70" y="410" as="sourcePoint" />
            <mxPoint x="190" y="750" as="targetPoint" />
            <Array as="points">
              <mxPoint x="160" y="880" />
            </Array>
          </mxGeometry>
        </mxCell>
        <mxCell id="3yZI5LPgk1Yc9uQEJVhP-167" value="&amp;nbsp;Ɛ" style="edgeLabel;html=1;align=center;verticalAlign=middle;resizable=0;points=[];" vertex="1" connectable="0" parent="3yZI5LPgk1Yc9uQEJVhP-165">
          <mxGeometry x="0.0907" y="-2" relative="1" as="geometry">
            <mxPoint as="offset" />
          </mxGeometry>
        </mxCell>
        <mxCell id="3yZI5LPgk1Yc9uQEJVhP-166" value="q&lt;sub&gt;19&lt;/sub&gt;" style="ellipse;whiteSpace=wrap;html=1;aspect=fixed;fillColor=#ffe6cc;strokeColor=#d79b00;" vertex="1" parent="1">
          <mxGeometry x="270" y="840" width="80" height="80" as="geometry" />
        </mxCell>
        <mxCell id="3yZI5LPgk1Yc9uQEJVhP-168" value="q&lt;sub&gt;20&lt;/sub&gt;" style="ellipse;whiteSpace=wrap;html=1;aspect=fixed;fillColor=#ffe6cc;strokeColor=#d79b00;" vertex="1" parent="1">
          <mxGeometry x="590" y="790" width="80" height="80" as="geometry" />
        </mxCell>
        <mxCell id="3yZI5LPgk1Yc9uQEJVhP-169" value="q&lt;sub&gt;21&lt;/sub&gt;" style="ellipse;whiteSpace=wrap;html=1;aspect=fixed;fillColor=#ffe6cc;strokeColor=#d79b00;" vertex="1" parent="1">
          <mxGeometry x="590" y="890" width="80" height="80" as="geometry" />
        </mxCell>
        <mxCell id="3yZI5LPgk1Yc9uQEJVhP-170" value="" style="endArrow=classic;html=1;rounded=0;exitX=1;exitY=0.5;exitDx=0;exitDy=0;entryX=0;entryY=0.5;entryDx=0;entryDy=0;" edge="1" parent="1" source="3yZI5LPgk1Yc9uQEJVhP-166" target="3yZI5LPgk1Yc9uQEJVhP-168">
          <mxGeometry width="50" height="50" relative="1" as="geometry">
            <mxPoint x="490" y="880" as="sourcePoint" />
            <mxPoint x="540" y="830" as="targetPoint" />
            <Array as="points">
              <mxPoint x="400" y="830" />
            </Array>
          </mxGeometry>
        </mxCell>
        <mxCell id="3yZI5LPgk1Yc9uQEJVhP-173" value="&amp;nbsp;=&amp;nbsp;" style="edgeLabel;html=1;align=center;verticalAlign=middle;resizable=0;points=[];" vertex="1" connectable="0" parent="3yZI5LPgk1Yc9uQEJVhP-170">
          <mxGeometry x="0.0988" y="1" relative="1" as="geometry">
            <mxPoint as="offset" />
          </mxGeometry>
        </mxCell>
        <mxCell id="3yZI5LPgk1Yc9uQEJVhP-171" value="" style="endArrow=classic;html=1;rounded=0;exitX=1;exitY=0.5;exitDx=0;exitDy=0;entryX=0;entryY=0.5;entryDx=0;entryDy=0;" edge="1" parent="1" source="3yZI5LPgk1Yc9uQEJVhP-166" target="3yZI5LPgk1Yc9uQEJVhP-169">
          <mxGeometry width="50" height="50" relative="1" as="geometry">
            <mxPoint x="490" y="970" as="sourcePoint" />
            <mxPoint x="540" y="920" as="targetPoint" />
            <Array as="points">
              <mxPoint x="400" y="930" />
            </Array>
          </mxGeometry>
        </mxCell>
        <mxCell id="3yZI5LPgk1Yc9uQEJVhP-172" value="&amp;nbsp;+&amp;nbsp;" style="edgeLabel;html=1;align=center;verticalAlign=middle;resizable=0;points=[];" vertex="1" connectable="0" parent="3yZI5LPgk1Yc9uQEJVhP-171">
          <mxGeometry x="0.0152" y="4" relative="1" as="geometry">
            <mxPoint as="offset" />
          </mxGeometry>
        </mxCell>
        <mxCell id="3yZI5LPgk1Yc9uQEJVhP-174" value="Operators" style="ellipse;whiteSpace=wrap;html=1;aspect=fixed;fillColor=#ffe6cc;strokeColor=#d79b00;" vertex="1" parent="1">
          <mxGeometry x="830" y="840" width="80" height="80" as="geometry" />
        </mxCell>
        <mxCell id="3yZI5LPgk1Yc9uQEJVhP-175" value="" style="endArrow=classic;html=1;rounded=0;exitX=1;exitY=0.5;exitDx=0;exitDy=0;entryX=0;entryY=0.5;entryDx=0;entryDy=0;" edge="1" parent="1" source="3yZI5LPgk1Yc9uQEJVhP-168" target="3yZI5LPgk1Yc9uQEJVhP-174">
          <mxGeometry width="50" height="50" relative="1" as="geometry">
            <mxPoint x="700" y="860" as="sourcePoint" />
            <mxPoint x="750" y="810" as="targetPoint" />
            <Array as="points">
              <mxPoint x="790" y="830" />
            </Array>
          </mxGeometry>
        </mxCell>
        <mxCell id="3yZI5LPgk1Yc9uQEJVhP-176" value="&amp;nbsp;Ɛ" style="edgeLabel;html=1;align=center;verticalAlign=middle;resizable=0;points=[];" vertex="1" connectable="0" parent="3yZI5LPgk1Yc9uQEJVhP-175">
          <mxGeometry x="-0.0545" y="1" relative="1" as="geometry">
            <mxPoint as="offset" />
          </mxGeometry>
        </mxCell>
        <mxCell id="3yZI5LPgk1Yc9uQEJVhP-177" value="" style="endArrow=classic;html=1;rounded=0;exitX=1;exitY=0.5;exitDx=0;exitDy=0;entryX=0;entryY=0.5;entryDx=0;entryDy=0;" edge="1" parent="1" source="3yZI5LPgk1Yc9uQEJVhP-169" target="3yZI5LPgk1Yc9uQEJVhP-174">
          <mxGeometry width="50" height="50" relative="1" as="geometry">
            <mxPoint x="760" y="970" as="sourcePoint" />
            <mxPoint x="810" y="920" as="targetPoint" />
            <Array as="points">
              <mxPoint x="790" y="930" />
            </Array>
          </mxGeometry>
        </mxCell>
        <mxCell id="3yZI5LPgk1Yc9uQEJVhP-178" value="&amp;nbsp;Ɛ" style="edgeLabel;html=1;align=center;verticalAlign=middle;resizable=0;points=[];" vertex="1" connectable="0" parent="3yZI5LPgk1Yc9uQEJVhP-177">
          <mxGeometry x="-0.0219" relative="1" as="geometry">
            <mxPoint as="offset" />
          </mxGeometry>
        </mxCell>
        <mxCell id="3yZI5LPgk1Yc9uQEJVhP-179" value="" style="endArrow=classic;html=1;rounded=0;exitX=1;exitY=0.5;exitDx=0;exitDy=0;entryX=0.5;entryY=1;entryDx=0;entryDy=0;" edge="1" parent="1" source="3yZI5LPgk1Yc9uQEJVhP-174" target="3yZI5LPgk1Yc9uQEJVhP-21">
          <mxGeometry width="50" height="50" relative="1" as="geometry">
            <mxPoint x="1060" y="890" as="sourcePoint" />
            <mxPoint x="1290" y="260" as="targetPoint" />
            <Array as="points">
              <mxPoint x="1210" y="880" />
            </Array>
          </mxGeometry>
        </mxCell>
        <mxCell id="3yZI5LPgk1Yc9uQEJVhP-180" value="&amp;nbsp;Ɛ" style="edgeLabel;html=1;align=center;verticalAlign=middle;resizable=0;points=[];" vertex="1" connectable="0" parent="3yZI5LPgk1Yc9uQEJVhP-179">
          <mxGeometry x="-0.4519" y="1" relative="1" as="geometry">
            <mxPoint as="offset" />
          </mxGeometry>
        </mxCell>
        <mxCell id="3yZI5LPgk1Yc9uQEJVhP-181" value="q&lt;span style=&quot;font-size: 10px;&quot;&gt;&lt;sub&gt;21&lt;/sub&gt;&lt;/span&gt;" style="ellipse;whiteSpace=wrap;html=1;aspect=fixed;fillColor=#b1ddf0;strokeColor=#10739e;" vertex="1" parent="1">
          <mxGeometry x="270" y="1070" width="80" height="80" as="geometry" />
        </mxCell>
        <mxCell id="3yZI5LPgk1Yc9uQEJVhP-182" value="q&lt;sub&gt;22&lt;/sub&gt;" style="ellipse;whiteSpace=wrap;html=1;aspect=fixed;fillColor=#b1ddf0;strokeColor=#10739e;" vertex="1" parent="1">
          <mxGeometry x="590" y="1020" width="80" height="80" as="geometry" />
        </mxCell>
        <mxCell id="3yZI5LPgk1Yc9uQEJVhP-183" value="q&lt;sub&gt;23&lt;/sub&gt;" style="ellipse;whiteSpace=wrap;html=1;aspect=fixed;fillColor=#b1ddf0;strokeColor=#10739e;" vertex="1" parent="1">
          <mxGeometry x="590" y="1120" width="80" height="80" as="geometry" />
        </mxCell>
        <mxCell id="3yZI5LPgk1Yc9uQEJVhP-184" value="" style="endArrow=classic;html=1;rounded=0;exitX=1;exitY=0.5;exitDx=0;exitDy=0;entryX=0;entryY=0.5;entryDx=0;entryDy=0;" edge="1" parent="1" source="3yZI5LPgk1Yc9uQEJVhP-181" target="3yZI5LPgk1Yc9uQEJVhP-182">
          <mxGeometry width="50" height="50" relative="1" as="geometry">
            <mxPoint x="490" y="1110" as="sourcePoint" />
            <mxPoint x="540" y="1060" as="targetPoint" />
            <Array as="points">
              <mxPoint x="400" y="1060" />
            </Array>
          </mxGeometry>
        </mxCell>
        <mxCell id="3yZI5LPgk1Yc9uQEJVhP-193" value="&amp;nbsp;(&amp;nbsp;" style="edgeLabel;html=1;align=center;verticalAlign=middle;resizable=0;points=[];" vertex="1" connectable="0" parent="3yZI5LPgk1Yc9uQEJVhP-184">
          <mxGeometry x="0.0334" y="1" relative="1" as="geometry">
            <mxPoint as="offset" />
          </mxGeometry>
        </mxCell>
        <mxCell id="3yZI5LPgk1Yc9uQEJVhP-186" value="" style="endArrow=classic;html=1;rounded=0;exitX=1;exitY=0.5;exitDx=0;exitDy=0;entryX=0;entryY=0.5;entryDx=0;entryDy=0;" edge="1" parent="1" source="3yZI5LPgk1Yc9uQEJVhP-181" target="3yZI5LPgk1Yc9uQEJVhP-183">
          <mxGeometry width="50" height="50" relative="1" as="geometry">
            <mxPoint x="490" y="1200" as="sourcePoint" />
            <mxPoint x="540" y="1150" as="targetPoint" />
            <Array as="points">
              <mxPoint x="400" y="1160" />
            </Array>
          </mxGeometry>
        </mxCell>
        <mxCell id="3yZI5LPgk1Yc9uQEJVhP-187" value="&amp;nbsp;)&amp;nbsp;" style="edgeLabel;html=1;align=center;verticalAlign=middle;resizable=0;points=[];" vertex="1" connectable="0" parent="3yZI5LPgk1Yc9uQEJVhP-186">
          <mxGeometry x="0.0152" y="4" relative="1" as="geometry">
            <mxPoint as="offset" />
          </mxGeometry>
        </mxCell>
        <mxCell id="3yZI5LPgk1Yc9uQEJVhP-188" value="Punctuators" style="ellipse;whiteSpace=wrap;html=1;aspect=fixed;fillColor=#b1ddf0;strokeColor=#10739e;" vertex="1" parent="1">
          <mxGeometry x="830" y="1070" width="80" height="80" as="geometry" />
        </mxCell>
        <mxCell id="3yZI5LPgk1Yc9uQEJVhP-189" value="" style="endArrow=classic;html=1;rounded=0;exitX=1;exitY=0.5;exitDx=0;exitDy=0;entryX=0;entryY=0.5;entryDx=0;entryDy=0;" edge="1" parent="1" source="3yZI5LPgk1Yc9uQEJVhP-182" target="3yZI5LPgk1Yc9uQEJVhP-188">
          <mxGeometry width="50" height="50" relative="1" as="geometry">
            <mxPoint x="700" y="1090" as="sourcePoint" />
            <mxPoint x="750" y="1040" as="targetPoint" />
            <Array as="points">
              <mxPoint x="790" y="1060" />
            </Array>
          </mxGeometry>
        </mxCell>
        <mxCell id="3yZI5LPgk1Yc9uQEJVhP-190" value="&amp;nbsp;Ɛ" style="edgeLabel;html=1;align=center;verticalAlign=middle;resizable=0;points=[];" vertex="1" connectable="0" parent="3yZI5LPgk1Yc9uQEJVhP-189">
          <mxGeometry x="-0.0545" y="1" relative="1" as="geometry">
            <mxPoint as="offset" />
          </mxGeometry>
        </mxCell>
        <mxCell id="3yZI5LPgk1Yc9uQEJVhP-191" value="" style="endArrow=classic;html=1;rounded=0;exitX=1;exitY=0.5;exitDx=0;exitDy=0;entryX=0;entryY=0.5;entryDx=0;entryDy=0;" edge="1" parent="1" source="3yZI5LPgk1Yc9uQEJVhP-183" target="3yZI5LPgk1Yc9uQEJVhP-188">
          <mxGeometry width="50" height="50" relative="1" as="geometry">
            <mxPoint x="760" y="1200" as="sourcePoint" />
            <mxPoint x="810" y="1150" as="targetPoint" />
            <Array as="points">
              <mxPoint x="790" y="1160" />
            </Array>
          </mxGeometry>
        </mxCell>
        <mxCell id="3yZI5LPgk1Yc9uQEJVhP-192" value="&amp;nbsp;Ɛ" style="edgeLabel;html=1;align=center;verticalAlign=middle;resizable=0;points=[];" vertex="1" connectable="0" parent="3yZI5LPgk1Yc9uQEJVhP-191">
          <mxGeometry x="-0.0219" relative="1" as="geometry">
            <mxPoint as="offset" />
          </mxGeometry>
        </mxCell>
        <mxCell id="3yZI5LPgk1Yc9uQEJVhP-194" value="" style="endArrow=classic;html=1;rounded=0;exitX=0.5;exitY=1;exitDx=0;exitDy=0;entryX=0;entryY=0.5;entryDx=0;entryDy=0;" edge="1" parent="1" source="3yZI5LPgk1Yc9uQEJVhP-1" target="3yZI5LPgk1Yc9uQEJVhP-181">
          <mxGeometry width="50" height="50" relative="1" as="geometry">
            <mxPoint x="70" y="630" as="sourcePoint" />
            <mxPoint x="120" y="580" as="targetPoint" />
            <Array as="points">
              <mxPoint x="140" y="1110" />
            </Array>
          </mxGeometry>
        </mxCell>
        <mxCell id="3yZI5LPgk1Yc9uQEJVhP-195" value="&amp;nbsp;Ɛ" style="edgeLabel;html=1;align=center;verticalAlign=middle;resizable=0;points=[];" vertex="1" connectable="0" parent="3yZI5LPgk1Yc9uQEJVhP-194">
          <mxGeometry x="0.2041" y="1" relative="1" as="geometry">
            <mxPoint as="offset" />
          </mxGeometry>
        </mxCell>
        <mxCell id="3yZI5LPgk1Yc9uQEJVhP-196" value="" style="endArrow=classic;html=1;rounded=0;exitX=1;exitY=0.5;exitDx=0;exitDy=0;entryX=1;entryY=1;entryDx=0;entryDy=0;" edge="1" parent="1" source="3yZI5LPgk1Yc9uQEJVhP-188" target="3yZI5LPgk1Yc9uQEJVhP-21">
          <mxGeometry width="50" height="50" relative="1" as="geometry">
            <mxPoint x="1120" y="1110" as="sourcePoint" />
            <mxPoint x="1170" y="1060" as="targetPoint" />
            <Array as="points">
              <mxPoint x="1240" y="1110" />
            </Array>
          </mxGeometry>
        </mxCell>
        <mxCell id="3yZI5LPgk1Yc9uQEJVhP-197" value="&amp;nbsp;Ɛ" style="edgeLabel;html=1;align=center;verticalAlign=middle;resizable=0;points=[];" vertex="1" connectable="0" parent="3yZI5LPgk1Yc9uQEJVhP-196">
          <mxGeometry x="-0.6252" y="-1" relative="1" as="geometry">
            <mxPoint as="offset" />
          </mxGeometry>
        </mxCell>
      </root>
    </mxGraphModel>
  </diagram>
</mxfile>
